<svg width="54" height="15" viewBox="0 0 54 15" fill="none" xmlns="http://www.w3.org/2000/svg">
<path d="M0.52 14.7C0.373333 14.7 0.253333 14.6533 0.16 14.56C0.0666667 14.4667 0.0200001 14.3467 0.0200001 14.2V4.8C0.0200001 4.65333 0.0666667 4.53333 0.16 4.44C0.253333 4.34667 0.373333 4.3 0.52 4.3H2.88C3.01333 4.3 3.12667 4.34667 3.22 4.44C3.32667 4.53333 3.38 4.65333 3.38 4.8V14.2C3.38 14.3467 3.32667 14.4667 3.22 14.56C3.12667 14.6533 3.01333 14.7 2.88 14.7H0.52ZM0.5 2.8C0.353333 2.8 0.233333 2.75333 0.14 2.66C0.0466667 2.56667 0 2.44667 0 2.3V0.519999C0 0.373333 1.65999 1.30002 1.51396e-05 1.74046e-05C1.66 1.3 0.353333 0 0.5 0H2.88C3.02667 0 3.14667 0.053333 3.24 0.159999C3.34667 0.253333 3.4 0.373333 3.4 0.519999V2.3C3.4 2.44667 3.34667 2.56667 3.24 2.66C3.14667 2.75333 3.02667 2.8 2.88 2.8H0.5Z" fill="#4732D3"/>
<path d="M9.27022 14.76C8.40355 14.76 7.66355 14.6667 7.05021 14.48C6.45021 14.28 5.95688 14.04 5.57021 13.76C5.19688 13.48 4.91688 13.1933 4.73021 12.9C4.54355 12.5933 4.44355 12.3333 4.43021 12.12C4.41688 11.9733 4.46355 11.8533 4.57021 11.76C4.67688 11.6533 4.79021 11.6 4.91021 11.6H7.19022C7.23021 11.6 7.26355 11.6067 7.29021 11.62C7.31688 11.6333 7.35688 11.66 7.41022 11.7C7.58355 11.7933 7.75688 11.9133 7.93021 12.06C8.10355 12.1933 8.30355 12.3133 8.53022 12.42C8.75688 12.5267 9.03022 12.58 9.35021 12.58C9.72355 12.58 10.0369 12.5067 10.2902 12.36C10.5435 12.2133 10.6702 11.9933 10.6702 11.7C10.6702 11.4867 10.6102 11.3133 10.4902 11.18C10.3702 11.0333 10.1235 10.8933 9.75022 10.76C9.39022 10.6267 8.84355 10.4933 8.11022 10.36C7.41688 10.2 6.81021 9.99334 6.29021 9.74C5.77021 9.47334 5.37021 9.13334 5.09021 8.72C4.81021 8.29334 4.67021 7.78 4.67021 7.18C4.67021 6.64667 4.84355 6.13334 5.19021 5.64C5.53688 5.14667 6.04355 4.74667 6.71021 4.44C7.37688 4.12 8.19688 3.96 9.17021 3.96C9.94355 3.96 10.6102 4.05334 11.1702 4.24C11.7435 4.41334 12.2235 4.64 12.6102 4.92C13.0102 5.2 13.3102 5.48667 13.5102 5.78C13.7102 6.07334 13.8169 6.34 13.8302 6.58C13.8435 6.71334 13.8035 6.83334 13.7102 6.94C13.6169 7.03334 13.5102 7.08 13.3902 7.08H11.3102C11.2569 7.08 11.2035 7.07334 11.1502 7.06C11.0969 7.03334 11.0502 7.00667 11.0102 6.98C10.8502 6.9 10.6902 6.79334 10.5302 6.66C10.3702 6.52667 10.1835 6.40667 9.97022 6.3C9.75688 6.19334 9.49021 6.14 9.17021 6.14C8.81021 6.14 8.53022 6.22 8.33022 6.38C8.13022 6.54 8.03022 6.74667 8.03022 7C8.03022 7.17334 8.08355 7.33334 8.19022 7.48C8.31022 7.62667 8.54355 7.76 8.89021 7.88C9.25022 8 9.80355 8.13334 10.5502 8.28C11.4702 8.42667 12.2035 8.66667 12.7502 9C13.2969 9.32 13.6835 9.7 13.9102 10.14C14.1369 10.5667 14.2502 11.02 14.2502 11.5C14.2502 12.14 14.0569 12.7067 13.6702 13.2C13.2969 13.6933 12.7369 14.08 11.9902 14.36C11.2435 14.6267 10.3369 14.76 9.27022 14.76Z" fill="#4732D3"/>
<path d="M15.8589 14.7C15.7122 14.7 15.5922 14.6533 15.4989 14.56C15.4056 14.4667 15.3589 14.3467 15.3589 14.2V0.999995C15.3589 0.853329 15.4056 0.73333 15.4989 0.639997C15.5922 0.546663 15.7122 0.499996 15.8589 0.499996H18.4189C18.5656 0.499996 18.6856 0.546663 18.7789 0.639997C18.8722 0.73333 18.9189 0.853329 18.9189 0.999995V5.46C19.2789 5.04666 19.7189 4.72 20.2389 4.48C20.7722 4.22666 21.3856 4.1 22.0789 4.1C22.8522 4.1 23.5389 4.27333 24.1389 4.62C24.7522 4.96666 25.2322 5.48 25.5789 6.16C25.9256 6.82666 26.0989 7.64666 26.0989 8.62V14.2C26.0989 14.3467 26.0522 14.4667 25.9589 14.56C25.8656 14.6533 25.7456 14.7 25.5989 14.7H23.0189C22.8856 14.7 22.7656 14.6533 22.6589 14.56C22.5656 14.4667 22.5189 14.3467 22.5189 14.2V8.74C22.5189 8.11333 22.3656 7.63333 22.0589 7.3C21.7656 6.95333 21.3256 6.78 20.7389 6.78C20.1922 6.78 19.7522 6.95333 19.4189 7.3C19.0856 7.63333 18.9189 8.11333 18.9189 8.74V14.2C18.9189 14.3467 18.8722 14.4667 18.7789 14.56C18.6856 14.6533 18.5656 14.7 18.4189 14.7H15.8589Z" fill="#4732D3"/>
<path d="M32.5989 14.76C31.4789 14.76 30.5322 13.98 29.7589 13.62C28.9989 13.26 28.4122 12.7467 27.9989 12.08C27.5989 11.4 27.3722 10.5933 27.3189 9.66001C27.3056 9.39334 27.2989 9.09334 27.2989 8.76001C27.2989 8.41334 27.3056 8.11334 27.3189 7.86001C27.3722 6.91334 27.6122 6.10667 28.0389 5.44C28.4656 4.77334 29.0589 4.26 29.8189 3.9C30.5922 3.54 31.5189 3.36 32.5989 3.36C33.6922 3.36 34.6189 3.54 35.3789 3.9C36.1522 4.26 36.7522 4.77334 37.1789 5.44C37.6056 6.10667 37.8456 6.91334 37.8989 7.86001C37.9122 8.11334 37.9189 8.41334 37.9189 8.76001C37.9189 9.09334 37.9122 9.39334 37.8989 9.66001C37.8456 10.5933 37.6122 11.4 37.1989 12.08C36.7989 12.7467 36.2122 13.26 35.4389 13.62C34.6789 13.98 33.7322 14.76 32.5989 14.76ZM32.5989 12.16C33.1989 12.16 33.6322 11.54 33.8989 11.18C34.1789 10.82 34.3389 10.28 34.3789 9.56001C34.3922 9.36001 34.3989 9.09334 34.3989 8.76001C34.3989 8.42667 34.3922 8.16 34.3789 7.96C34.3389 7.25334 34.1789 6.72 33.8989 6.36C33.6322 5.98667 33.1989 5.8 32.5989 5.8C32.0122 5.8 31.5789 5.98667 31.2989 6.36C31.0189 6.72 30.8656 7.25334 30.8389 7.96C30.8256 8.16 30.8389 9.22667 30.8389 9.56001C30.8256 9.36001 30.8389 9.89334 30.8389 9.56001C30.8656 10.28 31.0189 10.82 31.2989 11.18C31.5789 11.54 32.0122 12.16 32.5989 12.16Z" fill="#4732D3"/>
<path d="M39.5037 14.7C39.3571 14.7 39.2371 14.6533 39.1437 14.56C39.0504 14.4667 39.0037 14.3467 39.0037 14.2V0.999996C39.0037 0.85333 39.0504 0.733331 39.1437 0.639998C39.2371 0.546664 39.3571 0.499997 39.5037 0.499997H41.8638C42.0104 0.499997 42.1304 0.546664 42.2238 0.639998C42.3171 0.733331 42.3638 0.85333 42.3638 0.999996V14.2C42.3638 14.3467 42.3171 14.4667 42.2238 14.56C42.1304 14.6533 42.0104 14.7 41.8638 14.7H39.5037Z" fill="#4732D3"/>
<path d="M47.1864 14.76C46.4664 14.76 45.8197 14.6267 45.2464 14.36C44.6864 14.08 44.2397 13.7067 43.9064 13.24C43.5731 12.7733 43.4064 12.2467 43.4064 11.66C43.4064 10.7133 43.7931 9.96667 44.5664 9.42C45.3397 8.86 46.3664 8.48 47.6464 8.28L50.1464 7.9V7.62C50.1464 7.14 50.0464 6.77334 49.8464 6.52C49.6464 6.26667 49.2797 6.14 48.7464 6.14C48.3731 6.14 48.0664 6.21334 47.8264 6.36C47.5997 6.50667 47.4197 6.70667 47.2864 6.96C47.1664 7.13334 46.9997 7.22 46.7864 7.22H44.5464C44.3997 7.22 44.2864 7.18 44.2064 7.1C44.1264 7.00667 44.0931 6.9 44.1064 6.78C44.1064 6.54 44.1931 6.26667 44.3664 5.96C44.5531 5.64 44.8331 5.32667 45.2064 5.02C45.5797 4.71334 46.0597 4.46 46.6464 4.26C47.2331 4.06 47.9397 3.96 48.7664 3.96C49.6331 3.96 50.3731 4.06 50.9864 4.26C51.5997 4.46 52.0931 4.74 52.4664 5.1C52.8531 5.46 53.1397 5.88667 53.3264 6.38C53.5131 6.86 53.6064 7.39334 53.6064 7.98V14.06C53.6064 14.2067 53.5531 14.3267 53.4464 14.42C53.3531 14.5133 53.2397 14.56 53.1064 14.56H50.7864C50.6397 14.56 50.5197 14.5133 50.4264 14.42C50.3331 14.3267 50.2864 14.2067 50.2864 14.06V13.36C50.1131 13.6133 49.8797 13.8467 49.5864 14.06C49.2931 14.2733 48.9464 14.44 48.5464 14.56C48.1597 14.6933 47.7064 14.76 47.1864 14.76ZM48.1264 12.48C48.5131 12.48 48.8597 12.4 49.1664 12.24C49.4864 12.0667 49.7331 11.8067 49.9064 11.46C50.0931 11.1 50.1864 10.6533 50.1864 10.12V9.84L48.4864 10.14C47.8597 10.2467 47.3997 10.4133 47.1064 10.64C46.8264 10.8533 46.6864 11.1067 46.6864 11.4C46.6864 11.6267 46.7531 11.82 46.8864 11.98C47.0197 12.14 47.1931 12.2667 47.4064 12.36C47.6197 12.44 47.8597 12.48 48.1264 12.48Z" fill="#4732D3"/>
</svg>
