<svg width="115" height="41" viewBox="0 0 115 41" fill="none" xmlns="http://www.w3.org/2000/svg">
<path d="M3.84 23.8V21.68H9.76C10.4667 21.68 11.0267 21.4933 11.44 21.12C11.8533 20.7333 12.06 20.2 12.06 19.52C12.06 18.8133 11.8533 18.2733 11.44 17.9C11.0267 17.5267 10.4667 17.34 9.76 17.34H4.16V28H1.5V15.06H9.52C10.24 15.06 10.9133 15.1467 11.54 15.32C12.18 15.4933 12.7333 15.76 13.2 16.12C13.68 16.48 14.0533 16.94 14.32 17.5C14.5867 18.06 14.72 18.7333 14.72 19.52C14.72 20.2933 14.5867 20.9533 14.32 21.5C14.0533 22.0467 13.68 22.4933 13.2 22.84C12.7333 23.1733 12.18 23.42 11.54 23.58C10.9133 23.7267 10.24 23.8 9.52 23.8H3.84ZM24.533 28.26C22.813 28.26 21.3396 27.9933 20.113 27.46C18.8996 26.9133 17.9663 26.14 17.313 25.14C16.673 24.14 16.353 22.94 16.353 21.54C16.353 20.1267 16.673 18.92 17.313 17.92C17.9663 16.92 18.8996 16.1533 20.113 15.62C21.3396 15.0733 22.813 14.8 24.533 14.8C26.2663 14.8 27.7396 15.0733 28.953 15.62C30.1663 16.1533 31.093 16.92 31.733 17.92C32.3863 18.92 32.713 20.1267 32.713 21.54C32.713 22.94 32.3863 24.14 31.733 25.14C31.093 26.14 30.1663 26.9133 28.953 27.46C27.7396 27.9933 26.2663 28.26 24.533 28.26ZM24.533 25.96C25.5996 25.96 26.533 25.8 27.333 25.48C28.1463 25.16 28.7796 24.6733 29.233 24.02C29.6996 23.3667 29.933 22.54 29.933 21.54C29.933 20.54 29.6996 19.7133 29.233 19.06C28.7796 18.4067 28.1463 17.92 27.333 17.6C26.533 17.2667 25.5996 17.1 24.533 17.1C23.4796 17.1 22.5396 17.2667 21.713 17.6C20.8863 17.92 20.2396 18.4067 19.773 19.06C19.3063 19.7133 19.073 20.54 19.073 21.54C19.073 22.54 19.3063 23.3667 19.773 24.02C20.2396 24.6733 20.8863 25.16 21.713 25.48C22.5396 25.8 23.4796 25.96 24.533 25.96ZM34.4495 23.64H37.1495C37.2029 24.0933 37.4095 24.5067 37.7695 24.88C38.1429 25.24 38.6295 25.5267 39.2295 25.74C39.8295 25.94 40.5029 26.04 41.2495 26.04C41.9295 26.04 42.4895 25.9667 42.9295 25.82C43.3695 25.6733 43.6962 25.4667 43.9095 25.2C44.1229 24.9333 44.2295 24.6133 44.2295 24.24C44.2295 23.88 44.0962 23.6067 43.8295 23.42C43.5629 23.22 43.1429 23.06 42.5695 22.94C41.9962 22.8067 41.2429 22.6733 40.3095 22.54C39.5762 22.4333 38.8829 22.2867 38.2295 22.1C37.5762 21.9 36.9962 21.6467 36.4895 21.34C35.9962 21.0333 35.6029 20.66 35.3095 20.22C35.0295 19.7667 34.8895 19.2333 34.8895 18.62C34.8895 17.86 35.1029 17.1933 35.5295 16.62C35.9695 16.0467 36.6162 15.6 37.4695 15.28C38.3229 14.96 39.3695 14.8 40.6095 14.8C42.4762 14.8 43.9095 15.2 44.9095 16C45.9229 16.7867 46.4162 17.8733 46.3895 19.26H43.7895C43.7362 18.4733 43.4029 17.9067 42.7895 17.56C42.1895 17.2133 41.4295 17.04 40.5095 17.04C39.6562 17.04 38.9495 17.1667 38.3895 17.42C37.8429 17.6733 37.5695 18.1067 37.5695 18.72C37.5695 18.96 37.6362 19.1733 37.7695 19.36C37.9029 19.5333 38.1295 19.6867 38.4495 19.82C38.7695 19.9533 39.2029 20.08 39.7495 20.2C40.2962 20.32 40.9762 20.44 41.7895 20.56C42.5495 20.6667 43.2362 20.8133 43.8495 21C44.4762 21.1733 45.0095 21.4067 45.4495 21.7C45.9029 21.98 46.2495 22.34 46.4895 22.78C46.7295 23.22 46.8495 23.76 46.8495 24.4C46.8495 25.1867 46.6429 25.8733 46.2295 26.46C45.8295 27.0333 45.2029 27.48 44.3495 27.8C43.5095 28.12 42.4162 28.28 41.0695 28.28C40.1095 28.28 39.2629 28.18 38.5295 27.98C37.7962 27.7667 37.1629 27.4867 36.6295 27.14C36.0962 26.7933 35.6629 26.4133 35.3295 26C34.9962 25.5867 34.7562 25.1733 34.6095 24.76C34.4762 24.3467 34.4229 23.9733 34.4495 23.64Z" fill="white"/>
<path d="M69.2 22.6V25.78H79.18V28H66.54V15.06H79.16V17.28H69.2V20.5H77.36V22.6H69.2ZM95.0311 25.36L94.1911 25.7V15.06H96.8511V28H94.1911L83.7311 17.78L84.5711 17.44V28H81.9111V15.06H84.5711L95.0311 25.36ZM101.958 25.18V22.96H110.518V25.18H101.958ZM98.7384 28L104.818 15.06H107.698L113.838 28H110.938L105.618 16.34H106.898L101.618 28H98.7384Z" fill="white"/>
<path d="M70.352 9.912C69.328 10.168 68.432 10.296 67.664 10.296C66.928 10.296 66.224 10.248 65.552 10.152C63.664 11.496 61.392 13.688 58.736 16.728C62.608 22.776 65.696 28.2 68 33H56.048C54.736 30.184 53.424 27.64 52.112 25.368C48.56 30.424 45.824 34.904 43.904 38.808C43.264 38.968 42.32 39.176 41.072 39.432C39.824 39.72 38.928 39.928 38.384 40.056C41.072 35.256 45.088 29.432 50.432 22.584C47.136 17.432 43.408 12.904 39.248 9H54.176C54.912 10.568 55.936 12.36 57.248 14.376C57.504 14.088 58 13.512 58.736 12.648C59.472 11.752 60.048 11.08 60.464 10.632C60.88 10.184 61.424 9.64 62.096 9C63.408 7.752 64.768 6.872 66.176 6.36C66.72 6.2 67.824 6.04 69.488 5.88C71.152 5.688 72.352 5.352 73.088 4.872C72.32 6.632 71.408 8.312 70.352 9.912Z" fill="#CC9E6C"/>
</svg>
