<svg width="55" height="19" viewBox="0 0 55 19" fill="none" xmlns="http://www.w3.org/2000/svg">
<path d="M1.68495 16.0058C1.53829 16.0058 1.41829 15.9591 1.32495 15.8658C1.23162 15.7724 1.18495 15.6524 1.18495 15.5058V6.10578C1.18495 5.95911 1.23162 5.83911 1.32495 5.74578C1.41829 5.65244 1.53829 5.60578 1.68495 5.60578H4.04495C4.17829 5.60578 4.29162 5.65244 4.38495 5.74578C4.49162 5.83911 4.54495 5.95911 4.54495 6.10578V15.5058C4.54495 15.6524 4.49162 15.7724 4.38495 15.8658C4.29162 15.9591 4.17829 16.0058 4.04495 16.0058H1.68495ZM1.66495 4.10578C1.51829 4.10578 1.39829 4.05911 1.30495 3.96578C1.21162 3.87244 1.16495 3.75245 1.16495 3.60578V1.82578C1.16495 1.67911 -0.0883678 0.0991072 0.00496555 0.0057735C0.0982989 -0.100893 1.51829 1.30578 1.66495 1.30578H4.04495C4.19162 1.30578 4.31162 1.35911 4.40495 1.46578C4.51162 1.55911 4.56495 1.67911 4.56495 1.82578V3.60578C4.56495 3.75245 4.51162 3.87244 4.40495 3.96578C4.31162 4.05911 4.19162 4.10578 4.04495 4.10578H1.66495Z" fill="#4732D3"/>
<path d="M10.4352 16.4058C9.5685 16.4058 8.8285 16.3124 8.21517 16.1258C7.61517 15.9258 7.12183 15.6858 6.73517 15.4058C6.36183 15.1258 6.08183 14.8391 5.89517 14.5458C5.7085 14.2391 5.6085 13.9791 5.59517 13.7658C5.58183 13.6191 5.6285 13.4991 5.73517 13.4058C5.84183 13.2991 5.95517 13.2458 6.07517 13.2458H8.35517C8.39517 13.2458 8.4285 13.2524 8.45517 13.2658C8.48184 13.2791 8.52184 13.3058 8.57517 13.3458C8.7485 13.4391 8.92184 13.5591 9.09517 13.7058C9.2685 13.8391 9.4685 13.9591 9.69517 14.0658C9.92184 14.1724 10.1952 14.2258 10.5152 14.2258C10.8885 14.2258 11.2018 14.1524 11.4552 14.0058C11.7085 13.8591 11.8352 13.6391 11.8352 13.3458C11.8352 13.1324 11.7752 12.9591 11.6552 12.8258C11.5352 12.6791 11.2885 12.5391 10.9152 12.4058C10.5552 12.2724 10.0085 12.1391 9.27517 12.0058C8.58184 11.8458 7.97517 11.6391 7.45517 11.3858C6.93517 11.1191 6.53517 10.7791 6.25517 10.3658C5.97517 9.93911 5.83517 9.42578 5.83517 8.82578C5.83517 8.29244 6.0085 7.77911 6.35517 7.28578C6.70183 6.79245 7.2085 6.39244 7.87517 6.08578C8.54184 5.76578 9.36184 5.60578 10.3352 5.60578C11.1085 5.60578 11.7752 5.69911 12.3352 5.88578C12.9085 6.05911 13.3885 6.28578 13.7752 6.56578C14.1752 6.84578 14.4752 7.13244 14.6752 7.42578C14.8752 7.71911 14.9818 7.98578 14.9952 8.22578C15.0085 8.35911 14.9685 8.47911 14.8752 8.58578C14.7818 8.67911 14.6752 8.72578 14.5552 8.72578H12.4752C12.4218 8.72578 12.3685 8.71911 12.3152 8.70578C12.2618 8.67911 12.2152 8.65244 12.1752 8.62578C12.0152 8.54578 11.8552 8.43911 11.6952 8.30578C11.5352 8.17244 11.3485 8.05244 11.1352 7.94578C10.9218 7.83911 10.6552 7.78578 10.3352 7.78578C9.97517 7.78578 9.69517 7.86578 9.49517 8.02578C9.29517 8.18578 9.19517 8.39245 9.19517 8.64578C9.19517 8.81911 9.2485 8.97911 9.35517 9.12578C9.47517 9.27244 9.7085 9.40578 10.0552 9.52578C10.4152 9.64578 10.9685 9.77911 11.7152 9.92578C12.6352 10.0724 13.3685 10.3124 13.9152 10.6458C14.4618 10.9658 14.8485 11.3458 15.0752 11.7858C15.3018 12.2124 15.4152 12.6658 15.4152 13.1458C15.4152 13.7858 15.2218 14.3524 14.8352 14.8458C14.4618 15.3391 13.9018 15.7258 13.1552 16.0058C12.4085 16.2724 11.5018 16.4058 10.4352 16.4058Z" fill="#4732D3"/>
<path d="M16.8839 15.8658C16.7372 15.8658 16.6172 15.8191 16.5239 15.7258C16.4305 15.6324 16.3839 15.5124 16.3839 15.3658V2.16578C16.3839 2.01911 16.4305 1.89911 16.5239 1.80578C16.6172 1.71244 16.7372 1.66578 16.8839 1.66578H19.4439C19.5905 1.66578 19.7105 1.71244 19.8039 1.80578C19.8972 1.89911 19.9439 2.01911 19.9439 2.16578V6.62578C20.3039 6.21244 20.7439 5.88578 21.2639 5.64578C21.7972 5.39244 22.4105 5.26578 23.1039 5.26578C23.8772 5.26578 24.5639 5.43911 25.1639 5.78578C25.7772 6.13244 26.2572 6.64578 26.6039 7.32578C26.9505 7.99244 27.1239 8.81244 27.1239 9.78578V15.3658C27.1239 15.5124 27.0772 15.6324 26.9839 15.7258C26.8905 15.8191 26.7705 15.8658 26.6239 15.8658H24.0439C23.9105 15.8658 23.7905 15.8191 23.6839 15.7258C23.5905 15.6324 23.5439 15.5124 23.5439 15.3658V9.90578C23.5439 9.27911 23.3905 8.79911 23.0839 8.46578C22.7905 8.11911 22.3505 7.94578 21.7639 7.94578C21.2172 7.94578 20.7772 8.11911 20.4439 8.46578C20.1105 8.79911 19.9439 9.27911 19.9439 9.90578V15.3658C19.9439 15.5124 19.8972 15.6324 19.8039 15.7258C19.7105 15.8191 19.5905 15.8658 19.4439 15.8658H16.8839Z" fill="#4732D3"/>
<path d="M33.0417 18.7058C31.9217 18.7058 30.975 14.7258 30.2017 14.3658C29.4417 14.0058 28.855 13.4924 28.4417 12.8258C28.0417 12.1458 27.815 11.3391 27.7617 10.4058C27.7483 10.1391 27.7417 9.83911 27.7417 9.50578C27.7417 9.15911 27.7483 8.85911 27.7617 8.60578C27.815 7.65911 28.055 6.85245 28.4817 6.18578C28.9083 5.51911 29.5017 5.00578 30.2617 4.64578C31.035 4.28578 31.9617 4.10578 33.0417 4.10578C34.135 4.10578 35.0617 4.28578 35.8217 4.64578C36.595 5.00578 37.195 5.51911 37.6217 6.18578C38.0483 6.85245 38.2883 7.65911 38.3417 8.60578C38.355 8.85911 38.3617 9.15911 38.3617 9.50578C38.3617 9.83911 38.355 10.1391 38.3417 10.4058C38.2883 11.3391 38.055 12.1458 37.6417 12.8258C37.2417 13.4924 36.655 14.0058 35.8817 14.3658C35.1217 14.7258 34.175 18.7058 33.0417 18.7058ZM33.0417 12.9058C33.6417 12.9058 34.075 12.2858 34.3417 11.9258C34.6217 11.5658 34.7817 11.0258 34.8217 10.3058C34.835 10.1058 34.8417 9.83911 34.8417 9.50578C34.8417 9.17245 34.835 8.90578 34.8217 8.70578C34.7817 7.99911 34.6217 7.46578 34.3417 7.10578C34.075 6.73245 33.6417 6.54578 33.0417 6.54578C32.455 6.54578 32.0217 6.73245 31.7417 7.10578C31.4617 7.46578 31.3083 7.99911 31.2817 8.70578C31.2683 8.90578 31.2817 9.97245 31.2817 10.3058C31.2683 10.1058 31.2817 10.6391 31.2817 10.3058C31.3083 11.0258 31.4617 11.5658 31.7417 11.9258C32.0217 12.2858 32.455 12.9058 33.0417 12.9058Z" fill="#4732D3"/>
<path d="M40.6687 16.0058C40.522 16.0058 40.402 15.9591 40.3087 15.8658C40.2154 15.7724 40.1687 15.6524 40.1687 15.5058V2.30578C40.1687 2.15911 40.2154 2.03911 40.3087 1.94578C40.402 1.85244 40.522 1.80578 40.6687 1.80578H43.0287C43.1754 1.80578 43.2954 1.85244 43.3887 1.94578C43.482 2.03911 43.5287 2.15911 43.5287 2.30578V15.5058C43.5287 15.6524 43.482 15.7724 43.3887 15.8658C43.2954 15.9591 43.1754 16.0058 43.0287 16.0058H40.6687Z" fill="#4732D3"/>
<path d="M48.3514 16.0658C47.6314 16.0658 46.9847 15.9324 46.4114 15.6658C45.8514 15.3858 45.4047 15.0124 45.0714 14.5458C44.738 14.0791 44.5714 13.5524 44.5714 12.9658C44.5714 12.0191 44.958 11.2724 45.7314 10.7258C46.5047 10.1658 47.5314 9.78578 48.8114 9.58578L51.3114 9.20578V8.92578C51.3114 8.44578 51.2114 8.07912 51.0114 7.82578C50.8114 7.57245 50.4447 7.44578 49.9114 7.44578C49.538 7.44578 49.2314 7.51912 48.9914 7.66578C48.7647 7.81245 48.5847 8.01245 48.4514 8.26578C48.3314 8.43912 48.1647 8.52578 47.9514 8.52578H45.7114C45.5647 8.52578 45.4514 8.48578 45.3714 8.40578C45.2914 8.31245 45.258 8.20578 45.2714 8.08578C45.2714 7.84578 45.358 7.57245 45.5314 7.26578C45.718 6.94578 45.998 6.63245 46.3714 6.32578C46.7447 6.01912 47.2247 5.76578 47.8114 5.56578C48.398 5.36578 49.1047 5.26578 49.9314 5.26578C50.798 5.26578 51.538 5.36578 52.1514 5.56578C52.7647 5.76578 53.258 6.04578 53.6314 6.40578C54.018 6.76578 54.3047 7.19245 54.4914 7.68578C54.678 8.16578 54.7714 8.69912 54.7714 9.28578V15.3658C54.7714 15.5124 54.718 15.6324 54.6114 15.7258C54.518 15.8191 54.4047 15.8658 54.2714 15.8658H51.9514C51.8047 15.8658 51.6847 15.8191 51.5914 15.7258C51.498 15.6324 51.4514 15.5124 51.4514 15.3658V14.6658C51.278 14.9191 51.0447 15.1524 50.7514 15.3658C50.458 15.5791 50.1114 15.7458 49.7114 15.8658C49.3247 15.9991 48.8714 16.0658 48.3514 16.0658ZM49.2914 13.7858C49.678 13.7858 50.0247 13.7058 50.3314 13.5458C50.6514 13.3724 50.898 13.1124 51.0714 12.7658C51.258 12.4058 51.3514 11.9591 51.3514 11.4258V11.1458L49.6514 11.4458C49.0247 11.5524 48.5647 11.7191 48.2714 11.9458C47.9914 12.1591 47.8514 12.4124 47.8514 12.7058C47.8514 12.9324 47.918 13.1258 48.0514 13.2858C48.1847 13.4458 48.358 13.5724 48.5714 13.6658C48.7847 13.7458 49.0247 13.7858 49.2914 13.7858Z" fill="#4732D3"/>
</svg>
