
<!-- <svg xmlns="http://www.w3.org/2000/svg" width="176" height="72" viewBox="0 0 176 72">
  <g class="logo_svg__ola">
    <path fill="#ccf381" d="M35.671 35.516l.001.206c.004 9.6-8.028 17.638-17.633 17.638C8.3 53.36.4 45.463.4 35.722c0-8.933 7.228-16.845 16.153-17.563 4.786-.385 9.686 1.239 13.264 4.45 3.617 3.248 5.793 8.046 5.854 12.907zm-17.632 8.71c4.504 0 8.172-3.667 8.172-8.172 0-4.51-3.668-8.172-8.172-8.172a8.176 8.176 0 00-8.172 8.172c0 4.505 3.662 8.172 8.172 8.172z" class="logo_svg__o"></path>
    <path fill="#ccf381" d="M38.626-.001h10.975v52.445H38.626z" class="logo_svg__l1"></path>
    <path fill="#ccf381" d="M88.015 18.996v33.448H77.301v-4.508c-1.894 3.463-5.814 5.423-10.322 5.423-8.558 0-14.764-7.252-14.764-17.639s6.206-17.639 14.764-17.639c4.508 0 8.428 1.96 10.322 5.422v-4.507zM62.196 36.201c0 5.149 2.892 8.464 7.618 8.464 4.726 0 7.618-3.315 7.618-8.464 0-5.149-2.892-8.464-7.618-8.464-4.726 0-7.618 3.315-7.618 8.464z" class="logo_svg__a"></path>
  </g>
  <path fill="#ccf381" d="M107.492 18.127c10.512-.738 19.271 7.572 19.271 17.927 0 6.772-3.744 12.667-9.276 15.73-.612.339-1.27.58-1.928.82a5.572 5.572 0 00-.991.474 5.835 5.835 0 00-2.847 5.017c0 1.385.482 2.655 1.287 3.657.138.175.289.343.45.503a5.954 5.954 0 011.323 3.753 5.994 5.994 0 01-6.653 5.955c

-2.685-.288-4.893-2.416-5.268-5.091a5.978 5.978 0 011.262-4.617c.161-.16.312-.328.45-.503a5.816 5.816 0 001.287-3.657 5.836 5.836 0 00-3.839-5.491c-.647-.235-1.295-.472-1.898-.804-5.861-3.232-9.724-9.64-9.268-16.906.559-8.903 7.739-16.142 16.638-16.767zm1.298 26.1c4.505 0 8.173-3.668 8.173-8.173 0-4.51-3.668-8.174-8.173-8.174-4.508 0-8.173 3.665-8.173 8.174 0 4.505 3.665 8.173 8.173 8.173z" class="logo_svg__sauce__drip"></path>
  <g class="logo_svg__lu">
    <path fill="#ccf381" d="M129.566-.001h10.975v52.445h-10.975z" class="logo_svg__l2"></path>
    <path fill="#ccf381" d="M144.33 18.996h10.976v18.88c0 3.789 1.633 5.683 4.835 5.683 3.2 0 4.834-1.894 4.834-5.683v-18.88h10.975v20.448c0 8.689-5.814 13.915-15.81 13.915-9.995 0-15.81-5.226-15.81-13.915z" class="logo_svg__u"></path>
  </g>
</svg> -->

<!-- <svg xmlns="http://www.w3.org/2000/svg" width="176" height="72" viewBox="0 0 176 72">
  <g class="logo_svg__i">
    <path fill="#ccf381" d="M8.64 21.12H16V60H8.64z"></path>
  </g>
  <g class="logo_svg__s">
    <path fill="#ccf381" d="M38.56 21.12H45.92V30.72H53.28V38.08H45.92V46.4H38.56V38.08H30.08V30.72H38.56z"></path>
  </g>
  <g class="logo_svg__h">
    <path fill="#ccf381" d="M58.56 21.12H66.24V38.4H73.92V21.12H81.6V60H73.92V44.64H66.24V60H58.56V21.12z"></path>
  </g>
  <g class="logo_svg__o">
    <path fill="#ccf381" d="M85.28 39.84c4.48 0 8.16-3.68 8.16-8.16s-3.68-8.16-8.16-8.16-8.16 3.68-8.16 8.16 3.68 8.16 8.16 8.16z"></path>
  </g>
  <g class="logo_svg__l">
    <path fill="#ccf381" d="M95.2 21.12H102.56V52.32H95.2z"></path>
  </g>
  <g class="logo_svg__a">
    <path fill="#ccf381" d="M122.08 33.6h-9.92l-3.68 10.56h-9.28L106.4 33.6h-9.6l-10.08 29.76h9.92l3.68-10.88h9.28l3.68 10.88h9.6l-10.08-29.76zm-11.2 17.6l3.2-9.6 3.2 9.6h-6.4z"></path>
  </g>
</svg> -->


<svg xmlns="http://www.w3.org/2000/svg" width="24" height="24" viewBox="0 0 24 24">
  <path fill="#ccf381" d="M12 2c5.52 0 10 4.48 10 10s-4.48 10-10 10S2 17.52 2 12 6.48 2 12 2zm1.6 14.9c.3-.1.5-.4.5-.8v-.2c0-.3-.2-.6-.5-.7-.4-.1-.8-.2-1.3-.3l-.5-.2c-.1 0-.2-.1-.2-.2V14c.3-.1.5-.4.5-.8v-.2c0-.3-.2-.6-.5-.7-.4-.1-.8-.2-1.3-.3l-.5-.2c-.1 0-.2-.1-.2-.2V11c.3-.1.5-.4.5-.8v-.2c0-.3-.2-.6-.5-.7-.4-.1-.8-.2-1.3-.3l-.5-.2c-.1 0-.2-.1-.2-.2V8c.5.2 1 .3 1.6.3 1.1 0 1.7-.4 1.7-1.1 0-.6-.4-1-1.1-1.3L8.9 5.3C8.1 5 7.4 4.7 7.4 3.7c0-.6.4-1.2 1.1-1.5v-.1c-.8-.3-1.4-.8-1.4-1.7C7.2.4 8.5 0 10 .6 11.4 0 12 1 12 1.8c0 .4-.2.7-.5.9v.1c.3.1.5.4.5.8v.2c0 .3-.2.6-.5.7-.4.1-.8.2-1.3.3l-.5.2c-.1 0-.2.1-.2.2v.9c.3.1.5.4.5.8v.2c0 .3-.2.6-.5.7-.4.1-.8.2-1.3.3l-.5.2c-.1 0-.2.1-.2.2v.9c.3.1.5.4.5.8v.2c0 .3-.2.6-.5.7-.4.1-.8.2-1.3.3l-.5.2c-.1 0-.2.1-.2.2v1.8c.8-.4 1.5-.8 1.9-1 .4-.2.9-.3 1.4-.3.6 0 1 .2 1.4.5.4.4.7 1 .7 1.9 0 .9-.4 1.5-1.1 1.9l1.7 1.4c.8-.3 1.4-.7 1.4-1.9 0-1.3-1.1-2-2.4-2.3z" />
</svg>




